<?xml version="1.0" encoding="utf-8"?>
<!-- Generator: Adobe Illustrator 19.1.0, SVG Export Plug-In . SVG Version: 6.00 Build 0)  -->
<svg version="1.1" id="Lag_1" xmlns="http://www.w3.org/2000/svg" xmlns:xlink="http://www.w3.org/1999/xlink" x="0px" y="0px"
	 viewBox="0 0 651 102" style="enable-background:new 0 0 651 102;" xml:space="preserve">
<style type="text/css">
	.st0{fill:none;stroke:#000000;stroke-width:2;stroke-miterlimit:10;}
</style>
<g>
	<path class="st0" d="M27.9,78.7h26.3l1.5,13H11.4V29.9h16.6V78.7z"/>
	<path class="st0" d="M63.1,29.9h16.6v37.4c0,3.8,1,6.7,3.1,8.8c2.1,2.1,4.8,3.1,8.1,3.1c3.3,0,6-1,8.1-3.1c2.1-2.1,3.1-5,3.1-8.8
		V29.9h16.6v38.2c0,5.3-1.2,9.8-3.5,13.5c-2.3,3.7-5.6,6.6-9.7,8.5s-9,2.9-14.6,2.9c-5.5,0-10.4-1-14.6-2.9s-7.4-4.8-9.7-8.5
		c-2.3-3.7-3.5-8.2-3.5-13.5V29.9z"/>
	<path class="st0" d="M148.8,59.2v32.6h-16.6V29.9h15.4l23.8,33.6V29.9H188v61.9h-15.5L148.8,59.2z"/>
	<path class="st0" d="M196.2,91.7l23.2-61.9H236L259.1,91l-16.3,1.6l-4.5-13.1h-21.4l-4.3,12.2H196.2z M221.5,66.5h12.1l-6.2-16.8
		L221.5,66.5z"/>
	<path class="st0" d="M322,68.2h-10.6l1.5-12.1H337v32.3c-2.2,1.4-5.5,2.5-9.7,3.3c-4.2,0.8-8.1,1.2-11.5,1.2
		c-6.7,0-12.5-1.3-17.5-3.8c-5-2.5-8.8-6.2-11.5-11c-2.7-4.8-4-10.5-4-17.1c0-6.6,1.5-12.3,4.5-17.2c3-4.9,7.1-8.7,12.2-11.3
		c5.1-2.6,10.8-3.9,16.9-3.9c3.3,0,6.9,0.5,10.8,1.4c3.9,0.9,6.9,2.2,9.2,3.7L331.4,45c-3-1-5.7-1.7-8-2.1c-2.3-0.4-4.6-0.6-6.9-0.6
		c-2.6,0-5.2,0.7-7.8,2.1c-2.6,1.4-4.7,3.5-6.4,6.4c-1.7,2.8-2.5,6.2-2.5,10.2c0,4.2,0.8,7.7,2.4,10.4c1.6,2.8,3.6,4.8,6.1,6.1
		s5.1,1.9,7.9,1.9c1.8,0,3.8-0.2,5.8-0.5V68.2z"/>
	<path class="st0" d="M347.9,91.7V29.9h26c7.4,0,13.5,1.8,18.3,5.3c4.8,3.5,7.2,8.8,7.2,15.8c0,3.6-0.7,6.8-2.2,9.6
		c-1.5,2.8-3.5,5-6.1,6.8l13.7,24.4h-19.2l-10-19.5h-11v19.5H347.9z M373.4,42.9h-8.9v16.4h9.1c2.5,0,4.6-0.8,6.3-2.3
		c1.6-1.5,2.5-3.5,2.5-6c0-2.7-0.8-4.7-2.3-6.1C378.4,43.6,376.2,42.9,373.4,42.9z"/>
	<path class="st0" d="M406.5,91.7l23.2-61.9h16.6L469.4,91l-16.3,1.6l-4.5-13.1h-21.4L423,91.7H406.5z M428.8,23.2
		c-2.1,0-3.8-0.7-5.3-2.2c-1.5-1.5-2.2-3.2-2.2-5.4c0-2.1,0.8-3.8,2.3-5.3c1.5-1.5,3.3-2.2,5.3-2.2c2.2,0,4,0.7,5.5,2.2
		c1.5,1.5,2.2,3.3,2.2,5.3c0,2.1-0.7,3.9-2.2,5.4S431,23.2,428.8,23.2z M431.8,66.5h12.1l-6.2-16.8L431.8,66.5z M448,23.2
		c-2.1,0-3.8-0.7-5.3-2.2s-2.2-3.2-2.2-5.4c0-2.1,0.8-3.8,2.3-5.3c1.5-1.5,3.3-2.2,5.3-2.2c2.2,0,4,0.7,5.5,2.2
		c1.5,1.5,2.2,3.3,2.2,5.3c0,2.1-0.7,3.9-2.2,5.4S450.2,23.2,448,23.2z"/>
	<path class="st0" d="M505.2,91.7h-27.7V29.9h28c6.2,0,11.5,1.3,15.9,3.9c4.4,2.6,7.7,6.2,10,10.8c2.2,4.6,3.4,9.9,3.4,15.8
		c0,6.3-1.2,11.8-3.7,16.6c-2.5,4.7-6,8.4-10.5,10.9C516.1,90.5,511,91.7,505.2,91.7z M504.8,42.9h-10.6v35.9h10
		c4,0,7.3-1.6,9.8-4.7c2.5-3.2,3.8-7.7,3.8-13.6c0-5.2-1.1-9.4-3.4-12.7C512,44.5,508.8,42.9,504.8,42.9z"/>
	<path class="st0" d="M588.6,78.7l1.5,13h-45.3V29.9h41l1.5,13h-26v11.3h19l1.5,13h-20.6v11.6H588.6z"/>
	<path class="st0" d="M615.8,78.7h26.3l1.5,13h-44.4V29.9h16.6V78.7z"/>
</g>
</svg>
